<svg width="45" height="57" viewBox="0 0 45 57" fill="none" xmlns="http://www.w3.org/2000/svg">
<path d="M43.4914 51.1381C44.5482 52.9693 43.929 55.3101 42.105 56.3793L42.1042 56.3797C40.2595 57.4611 37.887 56.8305 36.8226 54.9759L31.2074 45.8132C30.7655 45.0481 30.4473 44.218 30.2646 43.3537L29.1606 38.6726L32.6908 36.6348L36.1934 39.9312C36.8506 40.5217 37.4105 41.2122 37.8523 41.9774L43.4914 51.1381Z" fill="#6B96AE"/>
<path d="M37.5185 41.4473L30.9149 45.2584C30.8817 45.1908 30.8496 45.1209 30.8186 45.0522C30.5746 44.5079 30.3878 43.9395 30.264 43.354L29.6556 40.8067L28.9578 37.8894L32.1662 36.1706L34.317 38.1793L36.1927 39.9313C36.6373 40.3312 37.0384 40.7758 37.3867 41.2594C37.4314 41.3212 37.4749 41.3843 37.5185 41.4473Z" fill="#50758D"/>
<path d="M34.317 38.1793C33.6581 38.6617 32.9683 39.1109 32.251 39.5257C31.4099 40.0115 30.5436 40.4389 29.6556 40.8067L28.9578 37.8894L32.1662 36.1706L34.317 38.1793Z" fill="#2B597F"/>
<path d="M21.0105 40.2337C32.1169 40.2337 41.1203 31.2302 41.1203 20.1238C41.1203 9.01747 32.1169 0.0139771 21.0105 0.0139771C9.90413 0.0139771 0.900635 9.01747 0.900635 20.1238C0.900635 31.2302 9.90413 40.2337 21.0105 40.2337Z" fill="#50758D"/>
<path d="M21.0105 35.4186C29.4576 35.4186 36.3053 28.5709 36.3053 20.1239C36.3053 11.6768 29.4576 4.82916 21.0105 4.82916C12.5635 4.82916 5.71582 11.6768 5.71582 20.1239C5.71582 28.5709 12.5635 35.4186 21.0105 35.4186Z" fill="#2EDFFC"/>
<path d="M34.7627 26.8192C33.4736 29.4731 31.4053 31.7831 28.6575 33.369C21.3423 37.5926 11.9887 35.0866 7.76503 27.7715C4.39047 21.9276 5.31174 14.7808 9.54914 9.98999C7.40638 14.4027 7.41898 19.7653 10.0568 24.3339C14.2804 31.6491 23.6341 34.1551 30.9492 29.9314C32.4205 29.0823 33.697 28.0258 34.7627 26.8192Z" fill="#27BDF3"/>
</svg>
